<svg width="64" height="64" viewBox="0 0 64 64" fill="none" xmlns="http://www.w3.org/2000/svg">
<path d="M32.0001 10.6667C34.8291 10.6667 37.5422 11.7905 39.5426 13.7909C41.5429 15.7912 42.6667 18.5044 42.6667 21.3333C42.6667 24.1623 41.5429 26.8754 39.5426 28.8758C37.5422 30.8762 34.8291 32 32.0001 32C29.1711 32 26.458 30.8762 24.4576 28.8758C22.4572 26.8754 21.3334 24.1623 21.3334 21.3333C21.3334 18.5044 22.4572 15.7912 24.4576 13.7909C26.458 11.7905 29.1711 10.6667 32.0001 10.6667ZM32.0001 16C30.5856 16 29.229 16.5619 28.2288 17.5621C27.2287 18.5623 26.6667 19.9188 26.6667 21.3333C26.6667 22.7478 27.2287 24.1044 28.2288 25.1046C29.229 26.1048 30.5856 26.6667 32.0001 26.6667C33.4146 26.6667 34.7711 26.1048 35.7713 25.1046C36.7715 24.1044 37.3334 22.7478 37.3334 21.3333C37.3334 19.9188 36.7715 18.5623 35.7713 17.5621C34.7711 16.5619 33.4146 16 32.0001 16ZM32.0001 34.6667C39.1201 34.6667 53.3334 38.2133 53.3334 45.3333V53.3333H10.6667V45.3333C10.6667 38.2133 24.8801 34.6667 32.0001 34.6667ZM32.0001 39.7333C24.0801 39.7333 15.7334 43.6267 15.7334 45.3333V48.2667H48.2668V45.3333C48.2668 43.6267 39.9201 39.7333 32.0001 39.7333Z" fill="#EE2547"/>
</svg>
