<svg width="64" height="64" viewBox="0 0 64 64" fill="none" xmlns="http://www.w3.org/2000/svg">
<path d="M26.3333 53H37V50.0667L40.3333 48.7333C43.2222 47.5778 45.6782 45.9671 47.7013 43.9013C49.7244 41.8356 51.1796 39.5351 52.0667 37H11.2667C12.1556 39.5333 13.6 41.8338 15.6 43.9013C17.6 45.9689 20.0667 47.5796 23 48.7333L26.3333 50.0667V53ZM21 58.3333V53.6667C16.2444 51.8 12.3893 48.9111 9.43467 45C6.48 41.0889 5.00178 36.6444 5 31.6667H10.3333V10.3333L58.3333 5V9L27.6667 12.4667V17H58.3333V21H27.6667V31.6667H58.3333C58.3333 36.6444 56.856 41.0889 53.9013 45C50.9467 48.9111 47.0907 51.8 42.3333 53.6667V58.3333H21ZM21 17H23.6667V12.8667L21 13.2V17ZM14.3333 17H17V13.6667L14.3333 13.9333V17ZM21 31.6667H23.6667V21H21V31.6667ZM14.3333 31.6667H17V21H14.3333V31.6667Z" fill="#EE2547"/>
</svg>
