<svg width="276" height="276" viewBox="0 0 276 276" fill="none" xmlns="http://www.w3.org/2000/svg">
<g clip-path="url(#clip0_14_3)">
<circle cx="138" cy="138" r="138" fill="#EE2547"/>
<path d="M113.8 220.8H152.2V210.24L164.2 205.44C174.6 201.28 183.442 195.482 190.725 188.045C198.008 180.608 203.246 172.326 206.44 163.2H59.56C62.76 172.32 67.96 180.602 75.16 188.045C82.36 195.488 91.24 201.286 101.8 205.44L113.8 210.24V220.8ZM94.6 240V223.2C77.48 216.48 63.6016 206.08 52.9648 192C42.328 177.92 37.0064 161.92 37 144H56.2V67.2L229 48V62.4L118.6 74.88V91.2H229V105.6H118.6V144H229C229 161.92 223.682 177.92 213.045 192C202.408 206.08 188.526 216.48 171.4 223.2V240H94.6ZM94.6 91.2H104.2V76.32L94.6 77.52V91.2ZM70.6 91.2H80.2V79.2L70.6 80.16V91.2ZM94.6 144H104.2V105.6H94.6V144ZM70.6 144H80.2V105.6H70.6V144Z" fill="#030100"/>
</g>
<defs>
<clipPath id="clip0_14_3">
<rect width="276" height="276" fill="white"/>
</clipPath>
</defs>
</svg>
