<svg width="64" height="64" viewBox="0 0 64 64" fill="none" xmlns="http://www.w3.org/2000/svg">
<path d="M16 58.6667C14.5333 58.6667 13.2782 58.1449 12.2346 57.1013C11.1911 56.0578 10.6684 54.8018 10.6666 53.3333V21.3333C10.6666 19.8667 11.1893 18.6116 12.2346 17.568C13.28 16.5244 14.5351 16.0018 16 16H21.3333C21.3333 13.0667 22.3777 10.5556 24.4666 8.46667C26.5555 6.37778 29.0666 5.33334 32 5.33334C34.9333 5.33334 37.4444 6.37778 39.5333 8.46667C41.6222 10.5556 42.6666 13.0667 42.6666 16H48C49.4666 16 50.7226 16.5227 51.768 17.568C52.8133 18.6133 53.3351 19.8684 53.3333 21.3333V53.3333C53.3333 54.8 52.8115 56.056 51.768 57.1013C50.7244 58.1467 49.4684 58.6684 48 58.6667H16ZM16 53.3333H48V21.3333H42.6666V26.6667C42.6666 27.4222 42.4106 28.056 41.8986 28.568C41.3866 29.08 40.7537 29.3351 40 29.3333C39.2462 29.3316 38.6133 29.0756 38.1013 28.5653C37.5893 28.0551 37.3333 27.4222 37.3333 26.6667V21.3333H26.6666V26.6667C26.6666 27.4222 26.4106 28.056 25.8986 28.568C25.3866 29.08 24.7537 29.3351 24 29.3333C23.2462 29.3316 22.6133 29.0756 22.1013 28.5653C21.5893 28.0551 21.3333 27.4222 21.3333 26.6667V21.3333H16V53.3333ZM26.6666 16H37.3333C37.3333 14.5333 36.8115 13.2782 35.768 12.2347C34.7244 11.1911 33.4684 10.6684 32 10.6667C30.5315 10.6649 29.2764 11.1876 28.2346 12.2347C27.1929 13.2818 26.6702 14.5369 26.6666 16Z" fill="#EE2547"/>
</svg>
